<?xml version="1.0" encoding="UTF-8" standalone="no"?>
<svg height="600" width="600" xmlns="http://www.w3.org/2000/svg" xmlns:xlink="http://www.w3.org/1999/xlink">
<line x1="0" y1="550" x2="700" y2="550" stroke="grey"/>
<line x1="0" y1="450" x2="700" y2="450" stroke="grey"/>
<line x1="0" y1="350" x2="700" y2="350" stroke="grey"/>
<line x1="0" y1="250" x2="700" y2="250" stroke="grey"/>
<line x1="0" y1="150" x2="700" y2="150" stroke="grey"/>
<line x1="0" y1="50" x2="700" y2="50" stroke="grey"/>

<line x1="50" y1="600" x2="50" y2="0" stroke="grey"/>
<line x1="150" y1="600" x2="150" y2="0" stroke="grey"/>
<line x1="250" y1="600" x2="250" y2="0" stroke="grey"/>
<line x1="350" y1="600" x2="350" y2="0" stroke="grey"/>
<line x1="450" y1="600" x2="450" y2="0" stroke="grey"/>
<line x1="550" y1="600" x2="550" y2="0" stroke="grey"/>


<path d="M 50,250 L 50,550 L 250,550 L 550,550 L 550,350" fill="none" stroke="red" stroke-width="4"/>

<circle cx="50" cy="250" r="5"/>
<circle cx="250" cy="550" r="5"/>
<circle cx="550" cy="350" r="5"/>
<circle cx="350" cy="50" r="5"/>

<circle cx="300" cy="300" r="5" fill="white" stroke="black"/>
<polygon points="50, 250 250, 550 550, 350 350, 50" fill="none" stroke="blue"/>

<text x="400" y="575" text-anchor="middle" style="font-family: Helvetica; font-size: 20px;  fill: red">3</text>
<text x="560" y="410" style="font-family: Helvetica; font-size: 20px;  fill: red">2</text>

<text x="255" y="570" style="font-family: Helvetica">0,0</text>
<text x="20" y="240" style="font-family: Helvetica">-2,3</text>
<text x="555" y="340" style="font-family: Helvetica">3,2</text>
<text x="355" y="40" style="font-family: Helvetica">1,5</text>

</svg>
