<?xml version="1.0" encoding="utf-8" standalone="no"?>
<!DOCTYPE svg PUBLIC "-//W3C//DTD SVG 1.1//EN"
  "http://www.w3.org/Graphics/SVG/1.1/DTD/svg11.dtd">
<!-- Created with matplotlib (http://matplotlib.org/) -->
<svg height="228pt" version="1.1" viewBox="0 0 228 228" width="228pt" xmlns="http://www.w3.org/2000/svg" xmlns:xlink="http://www.w3.org/1999/xlink">
 <defs>
  <style type="text/css">
*{stroke-linecap:butt;stroke-linejoin:round;}
  </style>
 </defs>
 <g id="figure_1">
  <g id="patch_1">
   <path d="M 0 228.76 
L 228.76 228.76 
L 228.76 0 
L 0 0 
z
" style="fill:none;"/>
  </g>
  <g id="patch_2">
   <path d="M 3.5 225.26 
L 225.26 225.26 
L 225.26 3.5 
L 3.5 3.5 
z
" style="fill:#ffffff;"/>
  </g>
  <g id="axes_1">
   <g id="Poly3DCollection_1">
    <path clip-path="url(#p55ddad81f3)" d="M 92.817499 83.707086 
L 92.817499 139.059401 
L 115.784994 138.985258 
L 123.047607 83.777621 
z
" style="fill:#17e6e1;stroke:#000000;"/>
    <path clip-path="url(#p55ddad81f3)" d="M 123.047607 83.777621 
L 115.784994 138.985258 
L 136.379559 139.029262 
L 147.829022 83.666144 
z
" style="fill:#17e6e1;stroke:#000000;"/>
    <path clip-path="url(#p55ddad81f3)" d="M 147.829022 83.666144 
L 136.379559 139.029262 
L 152.829535 139.14267 
L 165.19979 83.486474 
z
" style="fill:#17e6e1;stroke:#000000;"/>
    <path clip-path="url(#p55ddad81f3)" d="M 64.543894 83.41615 
L 70.984394 139.261578 
L 92.817499 139.059401 
L 92.817499 83.707086 
z
" style="fill:#17e6e1;stroke:#000000;"/>
    <path clip-path="url(#p55ddad81f3)" d="M 165.19979 83.486474 
L 152.829535 139.14267 
L 165.19979 139.280013 
L 176.809952 139.457911 
z
" style="fill:#17e68e;stroke:#000000;"/>
    <path clip-path="url(#p55ddad81f3)" d="M 98.274258 42.933277 
L 92.817499 83.707086 
L 123.047607 83.777621 
L 132.160952 42.991271 
z
" style="fill:#7017e6;stroke:#000000;"/>
    <path clip-path="url(#p55ddad81f3)" d="M 132.160952 42.991271 
L 123.047607 83.777621 
L 147.829022 83.666144 
L 154.50835 42.509632 
z
" style="fill:#7017e6;stroke:#000000;"/>
    <path clip-path="url(#p55ddad81f3)" d="M 154.50835 42.509632 
L 147.829022 83.666144 
L 165.19979 83.486474 
L 181.099867 83.228404 
z
" style="fill:#3117e6;stroke:#000000;"/>
    <path clip-path="url(#p55ddad81f3)" d="M 44.332229 83.020516 
L 53.316219 139.544765 
L 70.984394 139.261578 
L 64.543894 83.41615 
z
" style="fill:#17e6e1;stroke:#000000;"/>
    <path clip-path="url(#p55ddad81f3)" d="M 67.743066 42.003195 
L 64.543894 83.41615 
L 92.817499 83.707086 
L 98.274258 42.933277 
z
" style="fill:#7017e6;stroke:#000000;"/>
    <path clip-path="url(#p55ddad81f3)" d="M 181.099867 83.228404 
L 165.19979 83.486474 
L 176.809952 139.457911 
L 190.115032 139.738292 
z
" style="fill:#17e6e1;stroke:#000000;"/>
    <path clip-path="url(#p55ddad81f3)" d="M 115.784994 138.985258 
L 117.376757 218.41027 
L 136.379559 139.029262 
z
" style="fill:#8de617;stroke:#000000;"/>
    <path clip-path="url(#p55ddad81f3)" d="M 92.817499 139.059401 
L 117.376757 218.41027 
L 115.784994 138.985258 
z
" style="fill:#8de617;stroke:#000000;"/>
    <path clip-path="url(#p55ddad81f3)" d="M 32.052894 82.64722 
L 40.618086 139.84452 
L 53.316219 139.544765 
L 44.332229 83.020516 
z
" style="fill:#17e6e1;stroke:#000000;"/>
    <path clip-path="url(#p55ddad81f3)" d="M 136.379559 139.029262 
L 117.376757 218.41027 
L 152.829535 139.14267 
z
" style="fill:#8de617;stroke:#000000;"/>
    <path clip-path="url(#p55ddad81f3)" d="M 173.646818 41.634359 
L 154.50835 42.509632 
L 181.099867 83.228404 
L 199.252663 82.767148 
z
" style="fill:#7017e6;stroke:#000000;"/>
    <path clip-path="url(#p55ddad81f3)" d="M 199.252663 82.767148 
L 181.099867 83.228404 
L 190.115032 139.738292 
L 203.620885 140.15388 
z
" style="fill:#17e6e1;stroke:#000000;"/>
    <path clip-path="url(#p55ddad81f3)" d="M 51.57071 40.911591 
L 44.332229 83.020516 
L 64.543894 83.41615 
L 67.743066 42.003195 
z
" style="fill:#7017e6;stroke:#000000;"/>
    <path clip-path="url(#p55ddad81f3)" d="M 70.984394 139.261578 
L 117.376757 218.41027 
L 92.817499 139.059401 
z
" style="fill:#8de617;stroke:#000000;"/>
    <path clip-path="url(#p55ddad81f3)" d="M 152.829535 139.14267 
L 117.376757 218.41027 
L 165.19979 139.280013 
z
" style="fill:#8de617;stroke:#000000;"/>
    <path clip-path="url(#p55ddad81f3)" d="M 137.732804 15.814547 
L 132.160952 42.991271 
L 154.50835 42.509632 
L 173.646818 41.634359 
z
" style="fill:#e617bc;stroke:#000000;"/>
    <path clip-path="url(#p55ddad81f3)" d="M 106.875322 16.137712 
L 98.274258 42.933277 
L 132.160952 42.991271 
L 137.732804 15.814547 
z
" style="fill:#e61795;stroke:#000000;"/>
    <path clip-path="url(#p55ddad81f3)" d="M 176.809952 139.457911 
L 165.19979 139.280013 
L 117.376757 218.41027 
z
" style="fill:#8de617;stroke:#000000;"/>
    <path clip-path="url(#p55ddad81f3)" d="M 53.316219 139.544765 
L 117.376757 218.41027 
L 70.984394 139.261578 
z
" style="fill:#8de617;stroke:#000000;"/>
    <path clip-path="url(#p55ddad81f3)" d="M 24.975465 140.423593 
L 32.052894 140.119267 
L 40.618086 139.84452 
L 32.052894 82.64722 
z
" style="fill:#17e68e;stroke:#000000;"/>
    <path clip-path="url(#p55ddad81f3)" d="M 81.675226 14.611531 
L 67.743066 42.003195 
L 98.274258 42.933277 
L 106.875322 16.137712 
z
" style="fill:#e61795;stroke:#000000;"/>
    <path clip-path="url(#p55ddad81f3)" d="M 190.115032 139.738292 
L 176.809952 139.457911 
L 117.376757 218.41027 
z
" style="fill:#8de617;stroke:#000000;"/>
    <path clip-path="url(#p55ddad81f3)" d="M 22.650871 82.216792 
L 32.052894 82.64722 
L 44.332229 83.020516 
L 51.57071 40.911591 
z
" style="fill:#3117e6;stroke:#000000;"/>
    <path clip-path="url(#p55ddad81f3)" d="M 40.618086 139.84452 
L 117.376757 218.41027 
L 53.316219 139.544765 
z
" style="fill:#8de617;stroke:#000000;"/>
    <path clip-path="url(#p55ddad81f3)" d="M 214.467804 82.066062 
L 199.252663 82.767148 
L 203.620885 140.15388 
L 214.467804 140.700424 
z
" style="fill:#17e6e1;stroke:#000000;"/>
    <path clip-path="url(#p55ddad81f3)" d="M 191.913423 39.817453 
L 173.646818 41.634359 
L 199.252663 82.767148 
L 214.467804 82.066062 
z
" style="fill:#7017e6;stroke:#000000;"/>
    <path clip-path="url(#p55ddad81f3)" d="M 203.620885 140.15388 
L 190.115032 139.738292 
L 117.376757 218.41027 
z
" style="fill:#8de617;stroke:#000000;"/>
    <path clip-path="url(#p55ddad81f3)" d="M 32.052894 140.119267 
L 117.376757 218.41027 
L 40.618086 139.84452 
z
" style="fill:#8de617;stroke:#000000;"/>
    <path clip-path="url(#p55ddad81f3)" d="M 18.41731 140.844547 
L 24.975465 140.423593 
L 32.052894 82.64722 
L 22.650871 82.216792 
z
" style="fill:#17e6e1;stroke:#000000;"/>
    <path clip-path="url(#p55ddad81f3)" d="M 41.492382 39.547672 
L 51.57071 40.911591 
L 67.743066 42.003195 
L 81.675226 14.611531 
z
" style="fill:#e617bc;stroke:#000000;"/>
    <path clip-path="url(#p55ddad81f3)" d="M 157.529687 13.802149 
L 137.732804 15.814547 
L 173.646818 41.634359 
L 191.913423 39.817453 
z
" style="fill:#e61795;stroke:#000000;"/>
    <path clip-path="url(#p55ddad81f3)" d="M 117.376757 218.41027 
L 32.052894 140.119267 
L 24.975465 140.423593 
z
" style="fill:#8de617;stroke:#000000;"/>
    <path clip-path="url(#p55ddad81f3)" d="M 214.467804 140.700424 
L 203.620885 140.15388 
L 117.376757 218.41027 
z
" style="fill:#8de617;stroke:#000000;"/>
    <path clip-path="url(#p55ddad81f3)" d="M 15.33942 81.568791 
L 22.650871 82.216792 
L 51.57071 40.911591 
L 41.492382 39.547672 
z
" style="fill:#7017e6;stroke:#000000;"/>
    <path clip-path="url(#p55ddad81f3)" d="M 117.376757 4.356216 
L 106.875322 16.137712 
L 137.732804 15.814547 
L 157.529687 13.802149 
z
" style="fill:#e6173e;stroke:#000000;"/>
    <path clip-path="url(#p55ddad81f3)" d="M 117.376757 218.41027 
L 24.975465 140.423593 
L 18.41731 140.844547 
z
" style="fill:#8de617;stroke:#000000;"/>
    <path clip-path="url(#p55ddad81f3)" d="M 14.497023 141.394078 
L 18.41731 140.844547 
L 22.650871 82.216792 
L 15.33942 81.568791 
z
" style="fill:#17e6e1;stroke:#000000;"/>
    <path clip-path="url(#p55ddad81f3)" d="M 76.489867 12.018453 
L 81.675226 14.611531 
L 106.875322 16.137712 
L 117.376757 4.356216 
z
" style="fill:#e6173e;stroke:#000000;"/>
    <path clip-path="url(#p55ddad81f3)" d="M 220.467549 81.26098 
L 214.467804 82.066062 
L 214.467804 140.700424 
L 219.960272 141.307669 
z
" style="fill:#17e6e1;stroke:#000000;"/>
    <path clip-path="url(#p55ddad81f3)" d="M 219.960272 141.307669 
L 214.467804 140.700424 
L 117.376757 218.41027 
z
" style="fill:#8de617;stroke:#000000;"/>
    <path clip-path="url(#p55ddad81f3)" d="M 117.376757 218.41027 
L 18.41731 140.844547 
L 14.497023 141.394078 
z
" style="fill:#8de617;stroke:#000000;"/>
    <path clip-path="url(#p55ddad81f3)" d="M 195.279514 37.63698 
L 191.913423 39.817453 
L 214.467804 82.066062 
L 220.467549 81.26098 
z
" style="fill:#7017e6;stroke:#000000;"/>
    <path clip-path="url(#p55ddad81f3)" d="M 40.270704 37.350477 
L 41.492382 39.547672 
L 81.675226 14.611531 
L 76.489867 12.018453 
z
" style="fill:#e61795;stroke:#000000;"/>
    <path clip-path="url(#p55ddad81f3)" d="M 154.349828 11.164923 
L 157.529687 13.802149 
L 191.913423 39.817453 
L 195.279514 37.63698 
z
" style="fill:#e61795;stroke:#000000;"/>
    <path clip-path="url(#p55ddad81f3)" d="M 219.796713 141.874778 
L 219.960272 141.307669 
L 117.376757 218.41027 
z
" style="fill:#8de617;stroke:#000000;"/>
    <path clip-path="url(#p55ddad81f3)" d="M 15.880143 80.735777 
L 15.33942 81.568791 
L 41.492382 39.547672 
L 40.270704 37.350477 
z
" style="fill:#7017e6;stroke:#000000;"/>
    <path clip-path="url(#p55ddad81f3)" d="M 117.376757 218.41027 
L 14.497023 141.394078 
L 15.880143 142.030709 
z
" style="fill:#8de617;stroke:#000000;"/>
    <path clip-path="url(#p55ddad81f3)" d="M 15.880143 142.030709 
L 14.497023 141.394078 
L 15.33942 81.568791 
L 15.880143 80.735777 
z
" style="fill:#17e6e1;stroke:#000000;"/>
    <path clip-path="url(#p55ddad81f3)" d="M 128.61293 9.473802 
L 117.376757 4.356216 
L 157.529687 13.802149 
L 154.349828 11.164923 
z
" style="fill:#e6173e;stroke:#000000;"/>
    <path clip-path="url(#p55ddad81f3)" d="M 217.453288 80.569308 
L 220.467549 81.26098 
L 219.960272 141.307669 
L 219.796713 141.874778 
z
" style="fill:#17e6e1;stroke:#000000;"/>
    <path clip-path="url(#p55ddad81f3)" d="M 215.873143 142.339191 
L 219.796713 141.874778 
L 117.376757 218.41027 
z
" style="fill:#8de617;stroke:#000000;"/>
    <path clip-path="url(#p55ddad81f3)" d="M 95.74839 9.841189 
L 76.489867 12.018453 
L 117.376757 4.356216 
L 128.61293 9.473802 
z
" style="fill:#e6173e;stroke:#000000;"/>
    <path clip-path="url(#p55ddad81f3)" d="M 187.636605 36.142018 
L 195.279514 37.63698 
L 220.467549 81.26098 
L 217.453288 80.569308 
z
" style="fill:#7017e6;stroke:#000000;"/>
    <path clip-path="url(#p55ddad81f3)" d="M 117.376757 218.41027 
L 15.880143 142.030709 
L 23.645185 142.651656 
z
" style="fill:#8de617;stroke:#000000;"/>
    <path clip-path="url(#p55ddad81f3)" d="M 55.996642 35.300253 
L 40.270704 37.350477 
L 76.489867 12.018453 
L 95.74839 9.841189 
z
" style="fill:#e61795;stroke:#000000;"/>
    <path clip-path="url(#p55ddad81f3)" d="M 210.341562 142.692642 
L 215.873143 142.339191 
L 117.376757 218.41027 
z
" style="fill:#8de617;stroke:#000000;"/>
    <path clip-path="url(#p55ddad81f3)" d="M 172.123127 34.856478 
L 154.349828 11.164923 
L 195.279514 37.63698 
L 187.636605 36.142018 
z
" style="fill:#e617bc;stroke:#000000;"/>
    <path clip-path="url(#p55ddad81f3)" d="M 210.341562 80.073844 
L 217.453288 80.569308 
L 219.796713 141.874778 
L 215.873143 142.339191 
z
" style="fill:#17e6e1;stroke:#000000;"/>
    <path clip-path="url(#p55ddad81f3)" d="M 202.71424 143.02545 
L 210.341562 142.692642 
L 117.376757 218.41027 
z
" style="fill:#8de617;stroke:#000000;"/>
    <path clip-path="url(#p55ddad81f3)" d="M 27.383882 79.930222 
L 15.880143 80.735777 
L 40.270704 37.350477 
L 55.996642 35.300253 
z
" style="fill:#7017e6;stroke:#000000;"/>
    <path clip-path="url(#p55ddad81f3)" d="M 117.376757 218.41027 
L 23.645185 142.651656 
L 35.866547 143.157793 
z
" style="fill:#8de617;stroke:#000000;"/>
    <path clip-path="url(#p55ddad81f3)" d="M 23.645185 142.651656 
L 15.880143 142.030709 
L 15.880143 80.735777 
L 27.383882 79.930222 
z
" style="fill:#17e6e1;stroke:#000000;"/>
    <path clip-path="url(#p55ddad81f3)" d="M 190.21697 143.40438 
L 202.71424 143.02545 
L 117.376757 218.41027 
z
" style="fill:#8de617;stroke:#000000;"/>
    <path clip-path="url(#p55ddad81f3)" d="M 199.183175 79.61833 
L 187.636605 36.142018 
L 217.453288 80.569308 
L 210.341562 80.073844 
z
" style="fill:#3117e6;stroke:#000000;"/>
    <path clip-path="url(#p55ddad81f3)" d="M 139.058217 33.692089 
L 128.61293 9.473802 
L 154.349828 11.164923 
L 172.123127 34.856478 
z
" style="fill:#e61795;stroke:#000000;"/>
    <path clip-path="url(#p55ddad81f3)" d="M 117.376757 218.41027 
L 35.866547 143.157793 
L 49.349711 143.517418 
z
" style="fill:#8de617;stroke:#000000;"/>
    <path clip-path="url(#p55ddad81f3)" d="M 202.71424 143.02545 
L 210.341562 80.073844 
L 215.873143 142.339191 
L 210.341562 142.692642 
z
" style="fill:#17e68e;stroke:#000000;"/>
    <path clip-path="url(#p55ddad81f3)" d="M 171.285819 143.778551 
L 190.21697 143.40438 
L 117.376757 218.41027 
z
" style="fill:#8de617;stroke:#000000;"/>
    <path clip-path="url(#p55ddad81f3)" d="M 100.566191 33.617244 
L 95.74839 9.841189 
L 128.61293 9.473802 
L 139.058217 33.692089 
z
" style="fill:#e61795;stroke:#000000;"/>
    <path clip-path="url(#p55ddad81f3)" d="M 117.376757 218.41027 
L 49.349711 143.517418 
L 61.884556 143.753694 
z
" style="fill:#8de617;stroke:#000000;"/>
    <path clip-path="url(#p55ddad81f3)" d="M 75.781787 34.230728 
L 55.996642 35.300253 
L 95.74839 9.841189 
L 100.566191 33.617244 
z
" style="fill:#e617bc;stroke:#000000;"/>
    <path clip-path="url(#p55ddad81f3)" d="M 35.866547 143.157793 
L 23.645185 142.651656 
L 27.383882 79.930222 
L 44.883453 79.353462 
z
" style="fill:#17e6e1;stroke:#000000;"/>
    <path clip-path="url(#p55ddad81f3)" d="M 61.884556 143.753694 
L 75.796324 143.940606 
L 117.376757 218.41027 
z
" style="fill:#8de617;stroke:#000000;"/>
    <path clip-path="url(#p55ddad81f3)" d="M 178.350133 79.106967 
L 172.123127 34.856478 
L 187.636605 36.142018 
L 199.183175 79.61833 
z
" style="fill:#7017e6;stroke:#000000;"/>
    <path clip-path="url(#p55ddad81f3)" d="M 44.883453 79.353462 
L 27.383882 79.930222 
L 55.996642 35.300253 
L 75.781787 34.230728 
z
" style="fill:#7017e6;stroke:#000000;"/>
    <path clip-path="url(#p55ddad81f3)" d="M 146.369804 144.055899 
L 171.285819 143.778551 
L 117.376757 218.41027 
z
" style="fill:#8de617;stroke:#000000;"/>
    <path clip-path="url(#p55ddad81f3)" d="M 190.21697 143.40438 
L 199.183175 79.61833 
L 210.341562 80.073844 
L 202.71424 143.02545 
z
" style="fill:#17e6e1;stroke:#000000;"/>
    <path clip-path="url(#p55ddad81f3)" d="M 75.796324 143.940606 
L 94.889898 144.098003 
L 117.376757 218.41027 
z
" style="fill:#8de617;stroke:#000000;"/>
    <path clip-path="url(#p55ddad81f3)" d="M 119.266928 144.159836 
L 146.369804 144.055899 
L 117.376757 218.41027 
z
" style="fill:#8de617;stroke:#000000;"/>
    <path clip-path="url(#p55ddad81f3)" d="M 94.889898 144.098003 
L 119.266928 144.159836 
L 117.376757 218.41027 
z
" style="fill:#8de617;stroke:#000000;"/>
    <path clip-path="url(#p55ddad81f3)" d="M 49.349711 143.517418 
L 35.866547 143.157793 
L 44.883453 79.353462 
L 61.884556 79.012793 
z
" style="fill:#17e6e1;stroke:#000000;"/>
    <path clip-path="url(#p55ddad81f3)" d="M 146.369804 78.710588 
L 139.058217 33.692089 
L 172.123127 34.856478 
L 178.350133 79.106967 
z
" style="fill:#7017e6;stroke:#000000;"/>
    <path clip-path="url(#p55ddad81f3)" d="M 171.285819 143.778551 
L 178.350133 79.106967 
L 199.183175 79.61833 
L 190.21697 143.40438 
z
" style="fill:#17e6e1;stroke:#000000;"/>
    <path clip-path="url(#p55ddad81f3)" d="M 61.884556 79.012793 
L 44.883453 79.353462 
L 75.781787 34.230728 
L 81.542401 78.767463 
z
" style="fill:#3117e6;stroke:#000000;"/>
    <path clip-path="url(#p55ddad81f3)" d="M 81.542401 78.767463 
L 75.781787 34.230728 
L 100.566191 33.617244 
L 110.644711 78.611736 
z
" style="fill:#7017e6;stroke:#000000;"/>
    <path clip-path="url(#p55ddad81f3)" d="M 61.884556 143.753694 
L 49.349711 143.517418 
L 61.884556 79.012793 
L 75.796324 143.940606 
z
" style="fill:#17e68e;stroke:#000000;"/>
    <path clip-path="url(#p55ddad81f3)" d="M 110.644711 78.611736 
L 100.566191 33.617244 
L 139.058217 33.692089 
L 146.369804 78.710588 
z
" style="fill:#7017e6;stroke:#000000;"/>
    <path clip-path="url(#p55ddad81f3)" d="M 146.369804 144.055899 
L 146.369804 78.710588 
L 178.350133 79.106967 
L 171.285819 143.778551 
z
" style="fill:#17e6e1;stroke:#000000;"/>
    <path clip-path="url(#p55ddad81f3)" d="M 75.796324 143.940606 
L 61.884556 79.012793 
L 81.542401 78.767463 
L 94.889898 144.098003 
z
" style="fill:#17e6e1;stroke:#000000;"/>
    <path clip-path="url(#p55ddad81f3)" d="M 94.889898 144.098003 
L 81.542401 78.767463 
L 110.644711 78.611736 
L 119.266928 144.159836 
z
" style="fill:#17e6e1;stroke:#000000;"/>
    <path clip-path="url(#p55ddad81f3)" d="M 119.266928 144.159836 
L 110.644711 78.611736 
L 146.369804 78.710588 
L 146.369804 144.055899 
z
" style="fill:#17e6e1;stroke:#000000;"/>
   </g>
  </g>
 </g>
 <defs>
  <clipPath id="p55ddad81f3">
   <rect height="221.76" width="221.76" x="3.5" y="3.5"/>
  </clipPath>
 </defs>
</svg>
