<?xml version="1.0" encoding="UTF-8" standalone="no"?>
<svg width="200" height="200"
xmlns="http://www.w3.org/2000/svg" xmlns:xlink="http://www.w3.org/1999/xlink">
<polygon points="100,10 10,100, 100,190 190,100" fill="white" stroke="none"/>
<polygon points="100,10 100,190 10,100 190,100" fill="lightgrey" stroke="none"/>
<line x1="10" y1="100" x2="190" y2="100" stroke="blue"/>
<polygon points="100,10 10,100, 100,190 190,100" fill="none" stroke="blue"/>
<line x1="55" y1="145" x2="145" y2="55" stroke="black" stroke-width="2"/>
<line x1="55" y1="55" x2="145" y2="145" stroke="black" stroke-width="2"/>
<line x1="70" y1="70" x2="130" y2="70" stroke="black" stroke-width="2"/>
<line x1="70" y1="130" x2="130" y2="130" stroke="black" stroke-width="2"/>
<circle cx="70" cy="70" r="5" fill="black" stroke="black"/>
<circle cx="70" cy="130" r="5" fill="black" stroke="black"/>
<circle cx="130" cy="70" r="5" fill="black" stroke="black"/>
<circle cx="130" cy="130" r="5" fill="black" stroke="black"/>
<circle cx="100" cy="100" r="5" fill="black" stroke="black"/>
<circle cx="100" cy="10" r="5" fill="white" stroke="blue"/>
<circle cx="100" cy="190" r="5" fill="white" stroke="blue"/>
<circle cx="10" cy="100" r="5" fill="white" stroke="blue"/>
<circle cx="190" cy="100" r="5" fill="white" stroke="blue"/>
</svg>
