<?xml version="1.0" encoding="UTF-8" standalone="no"?>
<svg width="200" height="200"
xmlns="http://www.w3.org/2000/svg" xmlns:xlink="http://www.w3.org/1999/xlink">
<polygon points="100,10 10,100, 100,190 190,100" fill="white" stroke="none"/>
<polygon points="100,10 100,190 10,100 190,100" fill="lightgrey" stroke="none"/>
<polygon points="100,10 10,100, 100,190 190,100" fill="none" stroke="blue"/>
<line x1="10" y1="100" x2="190" y2="100" stroke="blue"/>
<line x1="120" y1="80" x2="80" y2="120" stroke="black" stroke-width="2"/>
<path d="M 10,100 80,120 100,190" fill="none" stroke="black" stroke-width="2"/>
<path d="M 190,100 120,80 100,10" fill="none" stroke="black" stroke-width="2"/>
<circle cx="100" cy="10" r="5" fill="black" stroke="black"/>
<circle cx="100" cy="190" r="5" fill="black" stroke="black"/>
<circle cx="10" cy="100" r="5" fill="black" stroke="black"/>
<circle cx="80" cy="120" r="5" fill="black" stroke="black"/>
<circle cx="120" cy="80" r="5" fill="black" stroke="black"/>
<circle cx="190" cy="100" r="5" fill="black" stroke="black"/>
</svg>
