<?xml version="1.0" encoding="UTF-8" standalone="no"?>
<svg width="200" height="200"
xmlns="http://www.w3.org/2000/svg" xmlns:xlink="http://www.w3.org/1999/xlink">
<polygon points="100,10 10,100, 100,190 190,100" fill="white" stroke="none"/>
<polygon points="100,10 100,190 10,100 190,100" fill="lightgrey" stroke="none"/>
<line x1="10" y1="100" x2="190" y2="100" stroke="blue"/>
<polygon points="100,10 10,100, 100,190 190,100" fill="none" stroke="blue"/>
<line x1="80" y1="30" x2="100" y2="50" stroke="black" stroke-width="2"/>
<line x1="120" y1="30" x2="100" y2="50" stroke="black" stroke-width="2"/>
<line x1="80" y1="170" x2="100" y2="150" stroke="black" stroke-width="2"/>
<line x1="120" y1="170" x2="100" y2="150" stroke="black" stroke-width="2"/>
<polygon points="100,50 130,80 130,120 100,150 70,120 70,80" fill="none" stroke="black" stroke-width="2"/>
<line x1="70" y1="80" x2="50" y2="60" stroke="black" stroke-width="2"/>
<line x1="130" y1="80" x2="150" y2="60" stroke="black" stroke-width="2"/>
<line x1="70" y1="120" x2="50" y2="140" stroke="black" stroke-width="2"/>
<line x1="130" y1="120" x2="150" y2="140" stroke="black" stroke-width="2"/>
<circle cx="100" cy="50" r="5" fill="black" stroke="black"/>
<circle cx="100" cy="150" r="5" fill="black" stroke="black"/>
<circle cx="70" cy="120" r="5" fill="black" stroke="black"/>
<circle cx="70" cy="80" r="5" fill="black" stroke="black"/>
<circle cx="130" cy="120" r="5" fill="black" stroke="black"/>
<circle cx="130" cy="80" r="5" fill="black" stroke="black"/>
<circle cx="100" cy="10" r="5" fill="white" stroke="blue"/>
<circle cx="100" cy="190" r="5" fill="white" stroke="blue"/>
<circle cx="10" cy="100" r="5" fill="white" stroke="blue"/>
<circle cx="190" cy="100" r="5" fill="white" stroke="blue"/>
</svg>
