<?xml version="1.0" encoding="UTF-8" standalone="no"?>
<svg width="200" height="200"
xmlns="http://www.w3.org/2000/svg" xmlns:xlink="http://www.w3.org/1999/xlink">
<polygon points="100,10 10,100, 100,190 190,100" fill="white" stroke="none"/>
<polygon points="100,10 100,190 10,100 190,100" fill="lightgrey" stroke="none"/>
<line x1="10" y1="100" x2="190" y2="100" stroke="blue"/>
<line x1="100" y1="10" x2="160" y2="130" stroke="black" stroke-width="2"/>
<line x1="40" y1="70" x2="100" y2="190" stroke="black" stroke-width="2"/>
<line x1="160" y1="70" x2="40" y2="130" stroke="black" stroke-width="2"/>
<polygon points="100,10 10,100, 100,190 190,100" fill="none" stroke="blue"/>
<circle cx="136" cy="82" r="5" fill="black" stroke="black"/>
<circle cx="64" cy="118" r="5" fill="black" stroke="black"/>
<circle cx="100" cy="10" r="5" fill="black" stroke="black"/>
<circle cx="100" cy="190" r="5" fill="black" stroke="black"/>
<circle cx="10" cy="100" r="5" fill="white" stroke="blue"/>
<circle cx="190" cy="100" r="5" fill="white" stroke="blue"/>
</svg>
