<?xml version="1.0" encoding="UTF-8" standalone="no"?>
<svg width="200" height="200"
xmlns="http://www.w3.org/2000/svg" xmlns:xlink="http://www.w3.org/1999/xlink">
<polygon points="100,10 10,100, 100,190 190,100" fill="white" stroke="none"/>
<polygon points="100,10 100,190 10,100 190,100" fill="lightgrey" stroke="none"/>
<line x1="10" y1="100" x2="190" y2="100" stroke="blue"/>
<polygon points="100,10 55,100 145,100" fill="none" stroke="black" stroke-width="2"/>
<polygon points="100,190, 55,100 145,100" fill="none" stroke="black" stroke-width="2"/>
<polygon points="100,10 10,100, 100,190 190,100" fill="none" stroke="blue"/>
<circle cx="55" cy="100" r="5" fill="black" stroke="black"/>
<circle cx="145" cy="100" r="5" fill="black" stroke="black"/>
<circle cx="100" cy="10" r="5" fill="black" stroke="black"/>
<circle cx="10" cy="100" r="5" fill="white" stroke="blue"/>
<circle cx="100" cy="190" r="5" fill="black" stroke="black"/>
<circle cx="190" cy="100" r="5" fill="white" stroke="blue"/>
</svg>
